G04 EAGLE Gerber RS-274X export*
G75*
%MOMM*%
%FSLAX34Y34*%
%LPD*%
%INTop Copper*%
%IPPOS*%
%AMOC8*
5,1,8,0,0,1.08239X$1,22.5*%
G01*
%ADD10C,1.524000*%
%ADD11P,1.649562X8X292.500000*%
%ADD12C,0.152400*%
%ADD13C,0.304800*%
%ADD14C,0.756400*%


D10*
X393700Y17780D02*
X393700Y33020D01*
X419100Y33020D02*
X419100Y17780D01*
X444500Y17780D02*
X444500Y33020D01*
X469900Y33020D02*
X469900Y17780D01*
X495300Y17780D02*
X495300Y33020D01*
X520700Y33020D02*
X520700Y17780D01*
X571500Y17780D02*
X571500Y33020D01*
X596900Y33020D02*
X596900Y17780D01*
X622300Y17780D02*
X622300Y33020D01*
X647700Y33020D02*
X647700Y17780D01*
X673100Y17780D02*
X673100Y33020D01*
X698500Y33020D02*
X698500Y17780D01*
X723900Y17780D02*
X723900Y33020D01*
X749300Y33020D02*
X749300Y17780D01*
X800100Y17780D02*
X800100Y33020D01*
X825500Y33020D02*
X825500Y17780D01*
X850900Y17780D02*
X850900Y33020D01*
X876300Y33020D02*
X876300Y17780D01*
X901700Y17780D02*
X901700Y33020D01*
X927100Y33020D02*
X927100Y17780D01*
X952500Y17780D02*
X952500Y33020D01*
X977900Y33020D02*
X977900Y17780D01*
X927100Y500380D02*
X927100Y515620D01*
X901700Y515620D02*
X901700Y500380D01*
X876300Y500380D02*
X876300Y515620D01*
X850900Y515620D02*
X850900Y500380D01*
X825500Y500380D02*
X825500Y515620D01*
X800100Y515620D02*
X800100Y500380D01*
X774700Y500380D02*
X774700Y515620D01*
X749300Y515620D02*
X749300Y500380D01*
X698500Y500380D02*
X698500Y515620D01*
X673100Y515620D02*
X673100Y500380D01*
X647700Y500380D02*
X647700Y515620D01*
X622300Y515620D02*
X622300Y500380D01*
X596900Y500380D02*
X596900Y515620D01*
X571500Y515620D02*
X571500Y500380D01*
X546100Y500380D02*
X546100Y515620D01*
X520700Y515620D02*
X520700Y500380D01*
X482600Y500380D02*
X482600Y515620D01*
X457200Y515620D02*
X457200Y500380D01*
X431800Y500380D02*
X431800Y515620D01*
X406400Y515620D02*
X406400Y500380D01*
X381000Y500380D02*
X381000Y515620D01*
X355600Y515620D02*
X355600Y500380D01*
X330200Y500380D02*
X330200Y515620D01*
X304800Y515620D02*
X304800Y500380D01*
D11*
X1003300Y508000D03*
X1028700Y508000D03*
X1003300Y482600D03*
X1028700Y482600D03*
X1003300Y457200D03*
X1028700Y457200D03*
X1003300Y431800D03*
X1028700Y431800D03*
X1003300Y406400D03*
X1028700Y406400D03*
X1003300Y381000D03*
X1028700Y381000D03*
X1003300Y355600D03*
X1028700Y355600D03*
X1003300Y330200D03*
X1028700Y330200D03*
X1003300Y304800D03*
X1028700Y304800D03*
X1003300Y279400D03*
X1028700Y279400D03*
X1003300Y254000D03*
X1028700Y254000D03*
X1003300Y228600D03*
X1028700Y228600D03*
X1003300Y203200D03*
X1028700Y203200D03*
X1003300Y177800D03*
X1028700Y177800D03*
X1003300Y152400D03*
X1028700Y152400D03*
X1003300Y127000D03*
X1028700Y127000D03*
X1003300Y101600D03*
X1028700Y101600D03*
X1003300Y76200D03*
X1028700Y76200D03*
D10*
X896620Y215900D02*
X881380Y215900D01*
X881380Y241300D02*
X896620Y241300D01*
X896620Y266700D02*
X881380Y266700D01*
X881380Y292100D02*
X896620Y292100D01*
X896620Y317500D02*
X881380Y317500D01*
X881380Y342900D02*
X896620Y342900D01*
X896620Y368300D02*
X881380Y368300D01*
X881380Y393700D02*
X896620Y393700D01*
X744220Y215900D02*
X728980Y215900D01*
X728980Y241300D02*
X744220Y241300D01*
X744220Y266700D02*
X728980Y266700D01*
X728980Y292100D02*
X744220Y292100D01*
X744220Y317500D02*
X728980Y317500D01*
X728980Y342900D02*
X744220Y342900D01*
X744220Y368300D02*
X728980Y368300D01*
X728980Y393700D02*
X744220Y393700D01*
X591820Y215900D02*
X576580Y215900D01*
X576580Y241300D02*
X591820Y241300D01*
X591820Y266700D02*
X576580Y266700D01*
X576580Y292100D02*
X591820Y292100D01*
X591820Y317500D02*
X576580Y317500D01*
X576580Y342900D02*
X591820Y342900D01*
X591820Y368300D02*
X576580Y368300D01*
X576580Y393700D02*
X591820Y393700D01*
X439420Y215900D02*
X424180Y215900D01*
X424180Y241300D02*
X439420Y241300D01*
X439420Y266700D02*
X424180Y266700D01*
X424180Y292100D02*
X439420Y292100D01*
X439420Y317500D02*
X424180Y317500D01*
X424180Y342900D02*
X439420Y342900D01*
X439420Y368300D02*
X424180Y368300D01*
X424180Y393700D02*
X439420Y393700D01*
X287020Y215900D02*
X271780Y215900D01*
X271780Y241300D02*
X287020Y241300D01*
X287020Y266700D02*
X271780Y266700D01*
X271780Y292100D02*
X287020Y292100D01*
X287020Y317500D02*
X271780Y317500D01*
X271780Y342900D02*
X287020Y342900D01*
X287020Y368300D02*
X271780Y368300D01*
X271780Y393700D02*
X287020Y393700D01*
X134620Y215900D02*
X119380Y215900D01*
X119380Y241300D02*
X134620Y241300D01*
X134620Y266700D02*
X119380Y266700D01*
X119380Y292100D02*
X134620Y292100D01*
X134620Y317500D02*
X119380Y317500D01*
X119380Y342900D02*
X134620Y342900D01*
X134620Y368300D02*
X119380Y368300D01*
X119380Y393700D02*
X134620Y393700D01*
X736600Y114300D02*
X736600Y99060D01*
X762000Y99060D02*
X762000Y114300D01*
X787400Y114300D02*
X787400Y99060D01*
X812800Y99060D02*
X812800Y114300D01*
X838200Y114300D02*
X838200Y99060D01*
X863600Y99060D02*
X863600Y114300D01*
X889000Y114300D02*
X889000Y99060D01*
X914400Y99060D02*
X914400Y114300D01*
X414020Y114300D02*
X414020Y99060D01*
X439420Y99060D02*
X439420Y114300D01*
X464820Y114300D02*
X464820Y99060D01*
X490220Y99060D02*
X490220Y114300D01*
X515620Y114300D02*
X515620Y99060D01*
X541020Y99060D02*
X541020Y114300D01*
X566420Y114300D02*
X566420Y99060D01*
X591820Y99060D02*
X591820Y114300D01*
X124460Y114300D02*
X124460Y99060D01*
X149860Y99060D02*
X149860Y114300D01*
X175260Y114300D02*
X175260Y99060D01*
X200660Y99060D02*
X200660Y114300D01*
X226060Y114300D02*
X226060Y99060D01*
X251460Y99060D02*
X251460Y114300D01*
X276860Y114300D02*
X276860Y99060D01*
X302260Y99060D02*
X302260Y114300D01*
X881380Y584200D02*
X881380Y599440D01*
X906780Y599440D02*
X906780Y584200D01*
X932180Y584200D02*
X932180Y599440D01*
X957580Y599440D02*
X957580Y584200D01*
X982980Y584200D02*
X982980Y599440D01*
X1008380Y599440D02*
X1008380Y584200D01*
X1033780Y584200D02*
X1033780Y599440D01*
X1059180Y599440D02*
X1059180Y584200D01*
X749300Y584200D02*
X749300Y599440D01*
X723900Y599440D02*
X723900Y584200D01*
X698500Y584200D02*
X698500Y599440D01*
X673100Y599440D02*
X673100Y584200D01*
X647700Y584200D02*
X647700Y599440D01*
X622300Y599440D02*
X622300Y584200D01*
X596900Y584200D02*
X596900Y599440D01*
X571500Y599440D02*
X571500Y584200D01*
X546100Y584200D02*
X546100Y599440D01*
X520700Y599440D02*
X520700Y584200D01*
X495300Y584200D02*
X495300Y599440D01*
X469900Y599440D02*
X469900Y584200D01*
X381000Y584200D02*
X381000Y599440D01*
X355600Y599440D02*
X355600Y584200D01*
X330200Y584200D02*
X330200Y599440D01*
X304800Y599440D02*
X304800Y584200D01*
X279400Y584200D02*
X279400Y599440D01*
X254000Y599440D02*
X254000Y584200D01*
X228600Y584200D02*
X228600Y599440D01*
X203200Y599440D02*
X203200Y584200D01*
X177800Y584200D02*
X177800Y599440D01*
X152400Y599440D02*
X152400Y584200D01*
X127000Y584200D02*
X127000Y599440D01*
X101600Y599440D02*
X101600Y584200D01*
D12*
X302260Y106680D02*
X388620Y106680D01*
X452120Y43180D02*
X502920Y43180D01*
X520700Y25400D01*
X452120Y43180D02*
X388620Y106680D01*
X736600Y292100D02*
X889000Y292100D01*
X939800Y241300D01*
X939800Y172720D01*
X985520Y127000D01*
X1003300Y127000D01*
X736600Y292100D02*
X584200Y292100D01*
X431800Y292100D01*
X279400Y292100D01*
X127000Y292100D01*
X736600Y266700D02*
X889000Y266700D01*
X927100Y228600D01*
X927100Y172720D01*
X985520Y114300D01*
X1016000Y114300D01*
X1028700Y127000D01*
X736600Y266700D02*
X584200Y266700D01*
X431800Y266700D01*
X279400Y266700D01*
X127000Y266700D01*
X736600Y241300D02*
X889000Y241300D01*
X914400Y215900D01*
X914400Y172720D01*
X985520Y101600D01*
X1003300Y101600D01*
X736600Y241300D02*
X584200Y241300D01*
X431800Y241300D01*
X279400Y241300D01*
X127000Y241300D01*
D13*
X736600Y393700D02*
X889000Y393700D01*
X736600Y393700D02*
X584200Y393700D01*
X431800Y393700D01*
X279400Y393700D01*
X127000Y393700D01*
X175260Y106680D02*
X200660Y106680D01*
X200660Y86360D02*
X212090Y74930D01*
X200660Y86360D02*
X200660Y106680D01*
X212090Y74930D02*
X412750Y74930D01*
X444500Y43180D02*
X444500Y25400D01*
X444500Y43180D02*
X412750Y74930D01*
X127000Y391007D02*
X127000Y393700D01*
X127000Y391007D02*
X108712Y372719D01*
X108712Y173228D02*
X175260Y106680D01*
X108712Y173228D02*
X108712Y372719D01*
D12*
X889000Y368300D02*
X977900Y279400D01*
X977900Y172720D02*
X985520Y165100D01*
X1016000Y165100D01*
X1028700Y177800D01*
X977900Y172720D02*
X977900Y279400D01*
X965200Y266700D02*
X889000Y342900D01*
X965200Y172720D02*
X985520Y152400D01*
X1003300Y152400D01*
X965200Y172720D02*
X965200Y266700D01*
X952500Y254000D02*
X889000Y317500D01*
X952500Y254000D02*
X952500Y172720D01*
X985520Y139700D01*
X1016000Y139700D01*
X1028700Y152400D01*
D14*
X901700Y167640D03*
X622300Y220980D03*
D12*
X675640Y167640D01*
X901700Y167640D01*
D14*
X889076Y175184D03*
X635000Y220980D03*
D12*
X680646Y175334D01*
X889076Y175184D01*
D14*
X647700Y220980D03*
X876148Y183032D03*
D12*
X685648Y183032D02*
X647700Y220980D01*
X685648Y183032D02*
X876148Y183032D01*
D14*
X469900Y220980D03*
D12*
X500380Y190500D01*
X642620Y190500D01*
D14*
X642620Y190500D03*
X698500Y190500D03*
D12*
X863600Y190500D02*
X863752Y190348D01*
D14*
X863752Y190348D03*
D12*
X863600Y190500D02*
X698500Y190500D01*
D14*
X622300Y205740D03*
D12*
X510540Y205740D01*
X495300Y220980D01*
D14*
X495300Y220980D03*
X835660Y205740D03*
X673100Y205740D03*
D12*
X835660Y205740D01*
D14*
X482600Y220980D03*
D12*
X505460Y198120D01*
X632460Y198120D01*
D14*
X632460Y198120D03*
X685800Y198120D03*
D12*
X850900Y198120D01*
X850976Y198044D01*
D14*
X850976Y198044D03*
X810260Y228600D03*
X396240Y228600D03*
D12*
X810260Y228600D01*
D14*
X396240Y254000D03*
D12*
X810260Y254000D01*
D14*
X810260Y254000D03*
X396240Y279400D03*
D12*
X810260Y279400D01*
D14*
X810260Y279400D03*
D12*
X144780Y317500D02*
X127000Y317500D01*
X144780Y317500D02*
X157480Y304800D01*
X810260Y304800D01*
D14*
X810260Y304800D03*
X810260Y330200D03*
D12*
X157480Y330200D01*
X144780Y342900D01*
X127000Y342900D01*
X127000Y368300D02*
X144780Y368300D01*
X157480Y355600D01*
X810260Y355600D01*
D14*
X810260Y355600D03*
D12*
X736600Y106680D02*
X736600Y88900D01*
X756920Y68580D01*
X774700Y68580D02*
X800100Y43180D01*
X800100Y25400D01*
X774700Y68580D02*
X756920Y68580D01*
X762000Y88900D02*
X762000Y106680D01*
X762000Y88900D02*
X782320Y68580D01*
X800100Y68580D01*
X825500Y43180D01*
X825500Y25400D01*
X787400Y88900D02*
X787400Y106680D01*
X787400Y88900D02*
X807720Y68580D01*
X825500Y68580D01*
X850900Y43180D01*
X850900Y25400D01*
X812800Y88900D02*
X812800Y106680D01*
X812800Y88900D02*
X833120Y68580D01*
X850900Y68580D01*
X876300Y43180D01*
X876300Y25400D01*
X838200Y88900D02*
X838200Y106680D01*
X858520Y68580D02*
X876300Y68580D01*
X901700Y43180D01*
X901700Y25400D01*
X858520Y68580D02*
X838200Y88900D01*
X863600Y88900D02*
X863600Y106680D01*
X863600Y88900D02*
X883920Y68580D01*
X901700Y68580D01*
X927100Y43180D01*
X927100Y25400D01*
X889000Y88900D02*
X889000Y106680D01*
X889000Y88900D02*
X909320Y68580D01*
X927100Y68580D01*
X952500Y43180D02*
X952500Y25400D01*
X952500Y43180D02*
X927100Y68580D01*
X914400Y88900D02*
X914400Y106680D01*
X914400Y88900D02*
X934720Y68580D01*
X952500Y68580D01*
X977900Y43180D01*
X977900Y25400D01*
X454660Y48260D02*
X414020Y88900D01*
X414020Y106680D01*
X571500Y43180D02*
X571500Y25400D01*
X571500Y43180D02*
X566420Y48260D01*
X454660Y48260D01*
X474980Y53340D02*
X439420Y88900D01*
X439420Y106680D01*
X474980Y53340D02*
X586740Y53340D01*
X596900Y43180D02*
X596900Y25400D01*
X596900Y43180D02*
X586740Y53340D01*
X495300Y58420D02*
X464820Y88900D01*
X464820Y106680D01*
X495300Y58420D02*
X607060Y58420D01*
X622300Y43180D02*
X622300Y25400D01*
X622300Y43180D02*
X607060Y58420D01*
X515620Y63500D02*
X490220Y88900D01*
X490220Y106680D01*
X515620Y63500D02*
X627380Y63500D01*
X647700Y43180D02*
X647700Y25400D01*
X647700Y43180D02*
X627380Y63500D01*
X535940Y68580D02*
X515620Y88900D01*
X515620Y106680D01*
X535940Y68580D02*
X647700Y68580D01*
X673100Y43180D02*
X673100Y25400D01*
X673100Y43180D02*
X647700Y68580D01*
X556260Y73660D02*
X541020Y88900D01*
X541020Y106680D01*
X556260Y73660D02*
X668020Y73660D01*
X698500Y43180D02*
X698500Y25400D01*
X698500Y43180D02*
X668020Y73660D01*
X576580Y78740D02*
X566420Y88900D01*
X566420Y106680D01*
X576580Y78740D02*
X688340Y78740D01*
X723900Y43180D02*
X723900Y25400D01*
X723900Y43180D02*
X688340Y78740D01*
X596900Y83820D02*
X591820Y88900D01*
X591820Y106680D01*
X596900Y83820D02*
X708660Y83820D01*
X749300Y43180D02*
X749300Y25400D01*
X749300Y43180D02*
X708660Y83820D01*
X393700Y42672D02*
X393700Y25400D01*
X393700Y42672D02*
X375920Y60452D01*
X124460Y83820D02*
X124460Y106680D01*
X124460Y83820D02*
X147828Y60452D01*
X375920Y60452D01*
X149860Y83820D02*
X149860Y106680D01*
X149860Y83820D02*
X167640Y66040D01*
X395779Y66040D01*
X419100Y42719D02*
X419100Y25400D01*
X419100Y42719D02*
X395779Y66040D01*
X673100Y508000D02*
X673100Y525780D01*
X701040Y553720D01*
X1033780Y574040D02*
X1033780Y591820D01*
X1033780Y574040D02*
X1013460Y553720D01*
X701040Y553720D01*
X698500Y525780D02*
X698500Y508000D01*
X698500Y525780D02*
X713740Y541020D01*
X1026160Y541020D01*
X1059180Y574040D02*
X1059180Y591820D01*
X1059180Y574040D02*
X1026160Y541020D01*
X345440Y546100D02*
X330200Y561340D01*
X330200Y591820D01*
X345440Y546100D02*
X576580Y546100D01*
X596900Y525780D02*
X596900Y508000D01*
X596900Y525780D02*
X576580Y546100D01*
X355600Y561340D02*
X355600Y591820D01*
X355600Y561340D02*
X365760Y551180D01*
X596900Y551180D01*
X622300Y525780D02*
X622300Y508000D01*
X622300Y525780D02*
X596900Y551180D01*
X386080Y556260D02*
X381000Y561340D01*
X381000Y591820D01*
X386080Y556260D02*
X617220Y556260D01*
X647700Y525780D02*
X647700Y508000D01*
X647700Y525780D02*
X617220Y556260D01*
X304800Y561340D02*
X304800Y591820D01*
X304800Y561340D02*
X325120Y541020D01*
X556260Y541020D01*
X571500Y525780D02*
X571500Y508000D01*
X571500Y525780D02*
X556260Y541020D01*
X304800Y535940D02*
X279400Y561340D01*
X279400Y591820D01*
X304800Y535940D02*
X535940Y535940D01*
X546100Y525780D02*
X546100Y508000D01*
X546100Y525780D02*
X535940Y535940D01*
X284480Y530860D02*
X254000Y561340D01*
X254000Y591820D01*
X520700Y525780D02*
X520700Y508000D01*
X520700Y525780D02*
X515620Y530860D01*
X284480Y530860D01*
X482600Y508000D02*
X482600Y487680D01*
X475234Y480314D01*
X309626Y480314D02*
X228600Y561340D01*
X309626Y480314D02*
X475234Y480314D01*
X228600Y561340D02*
X228600Y591820D01*
X203200Y591820D02*
X203200Y561340D01*
X292100Y472440D01*
X441960Y472440D01*
D14*
X441960Y472440D03*
X408940Y464820D03*
D12*
X274320Y464820D01*
X177800Y561340D01*
X177800Y591820D01*
D14*
X375920Y457200D03*
D12*
X256540Y457200D01*
X152400Y561340D01*
X152400Y591820D01*
X127000Y561340D02*
X238760Y449580D01*
X127000Y561340D02*
X127000Y591820D01*
X238760Y449580D02*
X342900Y449580D01*
D14*
X342900Y449580D03*
X309880Y441960D03*
D12*
X220980Y441960D01*
X101600Y561340D01*
X101600Y591820D01*
X1003300Y508000D02*
X1028700Y508000D01*
M02*
