G04 EAGLE Gerber RS-274X export*
G75*
%MOMM*%
%FSLAX34Y34*%
%LPD*%
%INSoldermask Top*%
%IPPOS*%
%AMOC8*
5,1,8,0,0,1.08239X$1,22.5*%
G01*
%ADD10C,1.727200*%
%ADD11P,1.869504X8X292.500000*%
%ADD12C,0.959600*%


D10*
X393700Y17780D02*
X393700Y33020D01*
X419100Y33020D02*
X419100Y17780D01*
X444500Y17780D02*
X444500Y33020D01*
X469900Y33020D02*
X469900Y17780D01*
X495300Y17780D02*
X495300Y33020D01*
X520700Y33020D02*
X520700Y17780D01*
X571500Y17780D02*
X571500Y33020D01*
X596900Y33020D02*
X596900Y17780D01*
X622300Y17780D02*
X622300Y33020D01*
X647700Y33020D02*
X647700Y17780D01*
X673100Y17780D02*
X673100Y33020D01*
X698500Y33020D02*
X698500Y17780D01*
X723900Y17780D02*
X723900Y33020D01*
X749300Y33020D02*
X749300Y17780D01*
X800100Y17780D02*
X800100Y33020D01*
X825500Y33020D02*
X825500Y17780D01*
X850900Y17780D02*
X850900Y33020D01*
X876300Y33020D02*
X876300Y17780D01*
X901700Y17780D02*
X901700Y33020D01*
X927100Y33020D02*
X927100Y17780D01*
X952500Y17780D02*
X952500Y33020D01*
X977900Y33020D02*
X977900Y17780D01*
X927100Y500380D02*
X927100Y515620D01*
X901700Y515620D02*
X901700Y500380D01*
X876300Y500380D02*
X876300Y515620D01*
X850900Y515620D02*
X850900Y500380D01*
X825500Y500380D02*
X825500Y515620D01*
X800100Y515620D02*
X800100Y500380D01*
X774700Y500380D02*
X774700Y515620D01*
X749300Y515620D02*
X749300Y500380D01*
X698500Y500380D02*
X698500Y515620D01*
X673100Y515620D02*
X673100Y500380D01*
X647700Y500380D02*
X647700Y515620D01*
X622300Y515620D02*
X622300Y500380D01*
X596900Y500380D02*
X596900Y515620D01*
X571500Y515620D02*
X571500Y500380D01*
X546100Y500380D02*
X546100Y515620D01*
X520700Y515620D02*
X520700Y500380D01*
X482600Y500380D02*
X482600Y515620D01*
X457200Y515620D02*
X457200Y500380D01*
X431800Y500380D02*
X431800Y515620D01*
X406400Y515620D02*
X406400Y500380D01*
X381000Y500380D02*
X381000Y515620D01*
X355600Y515620D02*
X355600Y500380D01*
X330200Y500380D02*
X330200Y515620D01*
X304800Y515620D02*
X304800Y500380D01*
D11*
X1003300Y508000D03*
X1028700Y508000D03*
X1003300Y482600D03*
X1028700Y482600D03*
X1003300Y457200D03*
X1028700Y457200D03*
X1003300Y431800D03*
X1028700Y431800D03*
X1003300Y406400D03*
X1028700Y406400D03*
X1003300Y381000D03*
X1028700Y381000D03*
X1003300Y355600D03*
X1028700Y355600D03*
X1003300Y330200D03*
X1028700Y330200D03*
X1003300Y304800D03*
X1028700Y304800D03*
X1003300Y279400D03*
X1028700Y279400D03*
X1003300Y254000D03*
X1028700Y254000D03*
X1003300Y228600D03*
X1028700Y228600D03*
X1003300Y203200D03*
X1028700Y203200D03*
X1003300Y177800D03*
X1028700Y177800D03*
X1003300Y152400D03*
X1028700Y152400D03*
X1003300Y127000D03*
X1028700Y127000D03*
X1003300Y101600D03*
X1028700Y101600D03*
X1003300Y76200D03*
X1028700Y76200D03*
D10*
X896620Y215900D02*
X881380Y215900D01*
X881380Y241300D02*
X896620Y241300D01*
X896620Y266700D02*
X881380Y266700D01*
X881380Y292100D02*
X896620Y292100D01*
X896620Y317500D02*
X881380Y317500D01*
X881380Y342900D02*
X896620Y342900D01*
X896620Y368300D02*
X881380Y368300D01*
X881380Y393700D02*
X896620Y393700D01*
X744220Y215900D02*
X728980Y215900D01*
X728980Y241300D02*
X744220Y241300D01*
X744220Y266700D02*
X728980Y266700D01*
X728980Y292100D02*
X744220Y292100D01*
X744220Y317500D02*
X728980Y317500D01*
X728980Y342900D02*
X744220Y342900D01*
X744220Y368300D02*
X728980Y368300D01*
X728980Y393700D02*
X744220Y393700D01*
X591820Y215900D02*
X576580Y215900D01*
X576580Y241300D02*
X591820Y241300D01*
X591820Y266700D02*
X576580Y266700D01*
X576580Y292100D02*
X591820Y292100D01*
X591820Y317500D02*
X576580Y317500D01*
X576580Y342900D02*
X591820Y342900D01*
X591820Y368300D02*
X576580Y368300D01*
X576580Y393700D02*
X591820Y393700D01*
X439420Y215900D02*
X424180Y215900D01*
X424180Y241300D02*
X439420Y241300D01*
X439420Y266700D02*
X424180Y266700D01*
X424180Y292100D02*
X439420Y292100D01*
X439420Y317500D02*
X424180Y317500D01*
X424180Y342900D02*
X439420Y342900D01*
X439420Y368300D02*
X424180Y368300D01*
X424180Y393700D02*
X439420Y393700D01*
X287020Y215900D02*
X271780Y215900D01*
X271780Y241300D02*
X287020Y241300D01*
X287020Y266700D02*
X271780Y266700D01*
X271780Y292100D02*
X287020Y292100D01*
X287020Y317500D02*
X271780Y317500D01*
X271780Y342900D02*
X287020Y342900D01*
X287020Y368300D02*
X271780Y368300D01*
X271780Y393700D02*
X287020Y393700D01*
X134620Y215900D02*
X119380Y215900D01*
X119380Y241300D02*
X134620Y241300D01*
X134620Y266700D02*
X119380Y266700D01*
X119380Y292100D02*
X134620Y292100D01*
X134620Y317500D02*
X119380Y317500D01*
X119380Y342900D02*
X134620Y342900D01*
X134620Y368300D02*
X119380Y368300D01*
X119380Y393700D02*
X134620Y393700D01*
X736600Y114300D02*
X736600Y99060D01*
X762000Y99060D02*
X762000Y114300D01*
X787400Y114300D02*
X787400Y99060D01*
X812800Y99060D02*
X812800Y114300D01*
X838200Y114300D02*
X838200Y99060D01*
X863600Y99060D02*
X863600Y114300D01*
X889000Y114300D02*
X889000Y99060D01*
X914400Y99060D02*
X914400Y114300D01*
X414020Y114300D02*
X414020Y99060D01*
X439420Y99060D02*
X439420Y114300D01*
X464820Y114300D02*
X464820Y99060D01*
X490220Y99060D02*
X490220Y114300D01*
X515620Y114300D02*
X515620Y99060D01*
X541020Y99060D02*
X541020Y114300D01*
X566420Y114300D02*
X566420Y99060D01*
X591820Y99060D02*
X591820Y114300D01*
X124460Y114300D02*
X124460Y99060D01*
X149860Y99060D02*
X149860Y114300D01*
X175260Y114300D02*
X175260Y99060D01*
X200660Y99060D02*
X200660Y114300D01*
X226060Y114300D02*
X226060Y99060D01*
X251460Y99060D02*
X251460Y114300D01*
X276860Y114300D02*
X276860Y99060D01*
X302260Y99060D02*
X302260Y114300D01*
X881380Y584200D02*
X881380Y599440D01*
X906780Y599440D02*
X906780Y584200D01*
X932180Y584200D02*
X932180Y599440D01*
X957580Y599440D02*
X957580Y584200D01*
X982980Y584200D02*
X982980Y599440D01*
X1008380Y599440D02*
X1008380Y584200D01*
X1033780Y584200D02*
X1033780Y599440D01*
X1059180Y599440D02*
X1059180Y584200D01*
X749300Y584200D02*
X749300Y599440D01*
X723900Y599440D02*
X723900Y584200D01*
X698500Y584200D02*
X698500Y599440D01*
X673100Y599440D02*
X673100Y584200D01*
X647700Y584200D02*
X647700Y599440D01*
X622300Y599440D02*
X622300Y584200D01*
X596900Y584200D02*
X596900Y599440D01*
X571500Y599440D02*
X571500Y584200D01*
X546100Y584200D02*
X546100Y599440D01*
X520700Y599440D02*
X520700Y584200D01*
X495300Y584200D02*
X495300Y599440D01*
X469900Y599440D02*
X469900Y584200D01*
X381000Y584200D02*
X381000Y599440D01*
X355600Y599440D02*
X355600Y584200D01*
X330200Y584200D02*
X330200Y599440D01*
X304800Y599440D02*
X304800Y584200D01*
X279400Y584200D02*
X279400Y599440D01*
X254000Y599440D02*
X254000Y584200D01*
X228600Y584200D02*
X228600Y599440D01*
X203200Y599440D02*
X203200Y584200D01*
X177800Y584200D02*
X177800Y599440D01*
X152400Y599440D02*
X152400Y584200D01*
X127000Y584200D02*
X127000Y599440D01*
X101600Y599440D02*
X101600Y584200D01*
D12*
X901700Y167640D03*
X622300Y220980D03*
X889076Y175184D03*
X635000Y220980D03*
X647700Y220980D03*
X876148Y183032D03*
X469900Y220980D03*
X642620Y190500D03*
X698500Y190500D03*
X863752Y190348D03*
X622300Y205740D03*
X495300Y220980D03*
X835660Y205740D03*
X673100Y205740D03*
X482600Y220980D03*
X632460Y198120D03*
X685800Y198120D03*
X850976Y198044D03*
X810260Y228600D03*
X396240Y228600D03*
X396240Y254000D03*
X810260Y254000D03*
X396240Y279400D03*
X810260Y279400D03*
X810260Y304800D03*
X810260Y330200D03*
X810260Y355600D03*
X441960Y472440D03*
X408940Y464820D03*
X375920Y457200D03*
X342900Y449580D03*
X309880Y441960D03*
M02*
