M48
;GenerationSoftware,Autodesk,EAGLE,9.6.2*%
;CreationDate,2022-03-11T00:33:47Z*%
FMAT,2
ICI,OFF
METRIC,TZ,000.000
T2C0.350
T1C1.016
%
G90
M71
T1
X92710Y50800
X88138Y59182
X90678Y59182
X93218Y59182
X95758Y59182
X100838Y59182
X103378Y59182
X105918Y59182
X74930Y59182
X72390Y59182
X69850Y59182
X67310Y59182
X64770Y59182
X62230Y59182
X59690Y59182
X57150Y59182
X54610Y59182
X52070Y59182
X49530Y59182
X46990Y59182
X38100Y59182
X35560Y59182
X33020Y59182
X30480Y59182
X27940Y59182
X25400Y59182
X22860Y59182
X102870Y12700
X20320Y59182
X17780Y59182
X15240Y59182
X12700Y59182
X39370Y2540
X41910Y2540
X44450Y2540
X46990Y2540
X49530Y2540
X52070Y2540
X57150Y2540
X59690Y2540
X62230Y2540
X64770Y2540
X67310Y2540
X69850Y2540
X72390Y2540
X74930Y2540
X80010Y2540
X82550Y2540
X85090Y2540
X87630Y2540
X90170Y2540
X92710Y2540
X95250Y2540
X97790Y2540
X10160Y59182
X90170Y50800
X87630Y50800
X85090Y50800
X82550Y50800
X80010Y50800
X77470Y50800
X74930Y50800
X69850Y50800
X67310Y50800
X64770Y50800
X62230Y50800
X59690Y50800
X57150Y50800
X54610Y50800
X52070Y50800
X48260Y50800
X45720Y50800
X43180Y50800
X40640Y50800
X38100Y50800
X35560Y50800
X33020Y50800
X30480Y50800
X100330Y50800
X102870Y50800
X100330Y48260
X102870Y48260
X100330Y45720
X102870Y45720
X100330Y43180
X102870Y43180
X100330Y40640
X102870Y40640
X100330Y38100
X102870Y38100
X100330Y35560
X102870Y35560
X100330Y33020
X102870Y33020
X100330Y30480
X102870Y30480
X100330Y27940
X102870Y27940
X100330Y25400
X102870Y25400
X100330Y22860
X102870Y22860
X100330Y20320
X102870Y20320
X100330Y17780
X102870Y17780
X100330Y15240
X102870Y15240
X100330Y12700
X98298Y59182
X100330Y10160
X102870Y10160
X100330Y7620
X102870Y7620
X88900Y21590
X88900Y24130
X88900Y26670
X88900Y29210
X88900Y31750
X88900Y34290
X88900Y36830
X88900Y39370
X73660Y21590
X73660Y24130
X73660Y26670
X73660Y29210
X73660Y31750
X73660Y34290
X73660Y36830
X73660Y39370
X58420Y21590
X58420Y24130
X58420Y26670
X58420Y29210
X58420Y31750
X58420Y34290
X58420Y36830
X58420Y39370
X43180Y21590
X43180Y24130
X43180Y26670
X43180Y29210
X43180Y31750
X43180Y34290
X43180Y36830
X43180Y39370
X27940Y21590
X27940Y24130
X27940Y26670
X27940Y29210
X27940Y31750
X27940Y34290
X27940Y36830
X27940Y39370
X12700Y21590
X12700Y24130
X12700Y26670
X12700Y29210
X12700Y31750
X12700Y34290
X12700Y36830
X12700Y39370
X73660Y10668
X76200Y10668
X78740Y10668
X81280Y10668
X83820Y10668
X86360Y10668
X88900Y10668
X91440Y10668
X41402Y10668
X43942Y10668
X46482Y10668
X49022Y10668
X51562Y10668
X54102Y10668
X56642Y10668
X59182Y10668
X12446Y10668
X14986Y10668
X17526Y10668
X20066Y10668
X22606Y10668
X25146Y10668
X27686Y10668
X30226Y10668
T2
X62230Y22098
X88908Y17518
X63500Y22098
X64770Y22098
X87615Y18303
X46990Y22098
X64262Y19050
X69850Y19050
X86375Y19035
X62230Y20574
X49530Y22098
X83566Y20574
X67310Y20574
X48260Y22098
X63246Y19812
X68580Y19812
X85098Y19804
X81026Y22860
X39624Y22860
X39624Y25400
X81026Y25400
X39624Y27940
X81026Y27940
X81026Y30480
X81026Y33020
X81026Y35560
X40894Y46482
X37592Y45720
X34290Y44958
X30988Y44196
X44196Y47244
X90170Y16764
M30